<?xml version="1.0" encoding="UTF-8"?>
<svg version="1.1" xmlns="http://www.w3.org/2000/svg" width="512" height="512">
<path d="M0 0 C1.01790619 0.00215515 2.03581238 0.0043103 3.08456421 0.00653076 C17.69363523 0.05620146 32.02575853 0.30709809 46.375 3.3125 C47.34985352 3.51117676 48.32470703 3.70985352 49.32910156 3.91455078 C97.7109774 14.03517194 141.69928269 35.9516877 177.375 70.3125 C178.3640332 71.26068604 178.3640332 71.26068604 179.37304688 72.22802734 C188.86130305 81.37247479 197.6012044 90.66984009 205.375 101.3125 C206.23306152 102.46355017 207.09113451 103.61459177 207.94921875 104.765625 C213.98736829 112.95680614 219.34595521 121.47054105 224.375 130.3125 C224.73948242 130.94430176 225.10396484 131.57610352 225.47949219 132.22705078 C247.08534998 169.97532572 256.85198095 212.74189997 256.6875 255.9375 C256.68534485 256.95540619 256.6831897 257.97331238 256.68096924 259.02206421 C256.63129854 273.63113523 256.38040191 287.96325853 253.375 302.3125 C253.07698486 303.77478027 253.07698486 303.77478027 252.77294922 305.26660156 C242.65232806 353.6484774 220.7358123 397.63678269 186.375 433.3125 C185.74287598 433.97185547 185.11075195 434.63121094 184.45947266 435.31054688 C175.31502521 444.79880305 166.01765991 453.5387044 155.375 461.3125 C154.22394983 462.17056152 153.07290823 463.02863451 151.921875 463.88671875 C143.73224019 469.92427396 135.22961724 475.30707302 126.375 480.3125 C125.66778809 480.7146875 124.96057617 481.116875 124.23193359 481.53125 C101.09654164 494.5566741 75.92537591 503.30551461 49.9375 508.625 C49.21860596 508.77235596 48.49971191 508.91971191 47.7590332 509.0715332 C33.08339502 511.86090125 18.55831162 512.66142619 3.64770508 512.62817383 C0.70811513 512.6250221 -2.2304558 512.64854926 -5.16992188 512.67382812 C-18.54306192 512.71848737 -31.43916711 511.51301542 -44.625 509.3125 C-46.33055054 509.03031616 -46.33055054 509.03031616 -48.07055664 508.74243164 C-50.6662622 508.27617402 -53.23774939 507.7574418 -55.8125 507.1875 C-57.20142456 506.88054199 -57.20142456 506.88054199 -58.6184082 506.56738281 C-103.06909585 496.23155661 -143.80440564 473.92342102 -176.625 442.3125 C-177.28435547 441.68037598 -177.94371094 441.04825195 -178.62304688 440.39697266 C-188.11130305 431.25252521 -196.8512044 421.95515991 -204.625 411.3125 C-205.48306152 410.16144983 -206.34113451 409.01040823 -207.19921875 407.859375 C-213.23677396 399.66974019 -218.61957302 391.16711724 -223.625 382.3125 C-224.0271875 381.60528809 -224.429375 380.89807617 -224.84375 380.16943359 C-237.8691741 357.03404164 -246.61801461 331.86287591 -251.9375 305.875 C-252.08485596 305.15610596 -252.23221191 304.43721191 -252.3840332 303.6965332 C-255.35789088 288.05024391 -255.99800362 272.57681954 -255.9375 256.6875 C-255.93534485 255.66959381 -255.9331897 254.65168762 -255.93096924 253.60293579 C-255.88129854 238.99386477 -255.63040191 224.66174147 -252.625 210.3125 C-252.42632324 209.33764648 -252.22764648 208.36279297 -252.02294922 207.35839844 C-241.90232806 158.9765226 -219.9858123 114.98821731 -185.625 79.3125 C-184.99287598 78.65314453 -184.36075195 77.99378906 -183.70947266 77.31445312 C-174.56502521 67.82619695 -165.26765991 59.0862956 -154.625 51.3125 C-153.47394983 50.45443848 -152.32290823 49.59636549 -151.171875 48.73828125 C-142.98224019 42.70072604 -134.47961724 37.31792698 -125.625 32.3125 C-124.91778809 31.9103125 -124.21057617 31.508125 -123.48193359 31.09375 C-100.34654164 18.0683259 -75.17537591 9.31948539 -49.1875 4 C-48.46860596 3.85264404 -47.74971191 3.70528809 -47.0090332 3.5534668 C-31.36274391 0.57960912 -15.88931954 -0.06050362 0 0 Z " fill="#F0EFEF" transform="translate(255.625,-0.3125)"/>
<path d="M0 0 C152.46 0 304.92 0 462 0 C460.23449015 5.29652956 458.25618063 9.5642994 455.5625 14.375 C455.12220459 15.16229492 454.68190918 15.94958984 454.22827148 16.76074219 C444.02219242 34.70731606 431.30743065 51.14505866 417 66 C416.36787598 66.65935547 415.73575195 67.31871094 415.08447266 67.99804688 C405.94002521 77.48630305 396.64265991 86.2262044 386 94 C384.84894983 94.85806152 383.69790823 95.71613451 382.546875 96.57421875 C374.35724019 102.61177396 365.85461724 107.99457302 357 113 C355.93918213 113.60328125 355.93918213 113.60328125 354.85693359 114.21875 C331.72154164 127.2441741 306.55037591 135.99301461 280.5625 141.3125 C279.84360596 141.45985596 279.12471191 141.60721191 278.3840332 141.7590332 C263.70839502 144.54840125 249.18331162 145.34892619 234.27270508 145.31567383 C231.33311513 145.3125221 228.3945442 145.33604926 225.45507812 145.36132812 C212.08193808 145.40598737 199.18583289 144.20051542 186 142 C184.86296631 141.81187744 183.72593262 141.62375488 182.55444336 141.42993164 C179.9587378 140.96367402 177.38725061 140.4449418 174.8125 139.875 C173.88655029 139.67036133 172.96060059 139.46572266 172.0065918 139.25488281 C127.55590415 128.91905661 86.82059436 106.61092102 54 75 C53.34064453 74.36787598 52.68128906 73.73575195 52.00195312 73.08447266 C42.51369695 63.94002521 33.7737956 54.64265991 26 44 C25.14193848 42.84894983 24.28386549 41.69790823 23.42578125 40.546875 C0 8.76238963 0 8.76238963 0 0 Z " fill="#348AF2" transform="translate(25,367)"/>
<path d="M0 0 C1.01790619 0.00215515 2.03581238 0.0043103 3.08456421 0.00653076 C17.69363523 0.05620146 32.02575853 0.30709809 46.375 3.3125 C47.34985352 3.51117676 48.32470703 3.70985352 49.32910156 3.91455078 C97.7109774 14.03517194 141.69928269 35.9516877 177.375 70.3125 C178.3640332 71.26068604 178.3640332 71.26068604 179.37304688 72.22802734 C188.86130305 81.37247479 197.6012044 90.66984009 205.375 101.3125 C206.23306152 102.46355017 207.09113451 103.61459177 207.94921875 104.765625 C231.375 136.55011037 231.375 136.55011037 231.375 145.3125 C78.915 145.3125 -73.545 145.3125 -230.625 145.3125 C-228.85949015 140.01597044 -226.88118063 135.7482006 -224.1875 130.9375 C-223.74720459 130.15020508 -223.30690918 129.36291016 -222.85327148 128.55175781 C-212.64719242 110.60518394 -199.93243065 94.16744134 -185.625 79.3125 C-184.99287598 78.65314453 -184.36075195 77.99378906 -183.70947266 77.31445312 C-174.56502521 67.82619695 -165.26765991 59.0862956 -154.625 51.3125 C-153.47394983 50.45443848 -152.32290823 49.59636549 -151.171875 48.73828125 C-142.98224019 42.70072604 -134.47961724 37.31792698 -125.625 32.3125 C-124.91778809 31.9103125 -124.21057617 31.508125 -123.48193359 31.09375 C-100.34654164 18.0683259 -75.17537591 9.31948539 -49.1875 4 C-48.46860596 3.85264404 -47.74971191 3.70528809 -47.0090332 3.5534668 C-31.36274391 0.57960912 -15.88931954 -0.06050362 0 0 Z " fill="#348AF2" transform="translate(255.625,-0.3125)"/>
<path d="M0 0 C0.66 0 1.32 0 2 0 C3.4453125 1.46875 3.4453125 1.46875 5.125 3.5 C7.66128046 6.48975264 10.26337679 9.31710276 13.0625 12.0625 C16.600001 15.54483529 19.82273508 19.18728209 23 23 C27.25606033 21.39508942 29.85829356 18.17810279 32.8125 14.875 C33.34149902 14.29403564 33.87049805 13.71307129 34.41552734 13.11450195 C37.92640996 9.24544273 41.36097902 5.31573427 44.6953125 1.29296875 C46 0 46 0 48 0 C48.57128069 4.37804601 49.14090498 8.75630335 49.70898438 13.13476562 C49.90253737 14.62473397 50.09654564 16.11464325 50.29101562 17.60449219 C50.57020408 19.74398742 50.84776316 21.88368862 51.125 24.0234375 C51.29257812 25.31169434 51.46015625 26.59995117 51.6328125 27.92724609 C52 31 52 31 52 33 C53.3317627 32.71950806 53.3317627 32.71950806 54.69042969 32.43334961 C57.99145935 31.7424314 61.29391791 31.05938857 64.59765625 30.3815918 C66.02604081 30.08687407 67.45378811 29.78904974 68.88085938 29.48803711 C70.93459192 29.05540891 72.99037197 28.63407763 75.046875 28.21484375 C76.28276367 27.95823975 77.51865234 27.70163574 78.79199219 27.43725586 C81.67700359 27.04402485 83.31059858 27.01055865 86 28 C85.32626343 29.20329956 85.32626343 29.20329956 84.63891602 30.4309082 C82.97263757 33.40975049 81.30866598 36.38985676 79.64624023 39.37084961 C78.92645763 40.66042633 78.20576109 41.94949338 77.48413086 43.23803711 C76.44664281 45.09094935 75.41246241 46.9456736 74.37890625 48.80078125 C73.7557251 49.91622314 73.13254395 51.03166504 72.49047852 52.1809082 C70.92172489 54.96173005 70.92172489 54.96173005 70 58 C70.87414551 58.27634277 71.74829102 58.55268555 72.64892578 58.83740234 C75.76760916 59.91937599 78.64750518 61.16677216 81.6171875 62.6015625 C82.63554687 63.09140625 83.65390625 63.58125 84.703125 64.0859375 C86.27320313 64.84777344 86.27320313 64.84777344 87.875 65.625 C88.94492187 66.140625 90.01484375 66.65625 91.1171875 67.1875 C93.74635682 68.45513521 96.37388302 69.7260566 99 71 C99 71.66 99 72.32 99 73 C95.19380871 74.85638226 91.38518959 76.7076563 87.57421875 78.55419922 C86.27763717 79.18332711 84.98173413 79.81385541 83.68652344 80.44580078 C81.82662989 81.35296172 79.96436859 82.25508803 78.1015625 83.15625 C76.42054443 83.97319336 76.42054443 83.97319336 74.70556641 84.80664062 C72 86 72 86 70 86 C74.98910037 96.21704066 80.24012152 106.19595152 86 116 C82.11812085 117.4281586 79.02500949 116.61112485 75.046875 115.78515625 C73.83870117 115.53902588 72.63052734 115.29289551 71.38574219 115.03930664 C69.85594727 114.71696045 68.32615234 114.39461426 66.75 114.0625 C59.44875 112.5465625 59.44875 112.5465625 52 111 C50.68 121.89 49.36 132.78 48 144 C47.34 144 46.68 144 46 144 C44.5546875 142.53125 44.5546875 142.53125 42.875 140.5 C40.33871954 137.51024736 37.73662321 134.68289724 34.9375 131.9375 C31.399999 128.45516471 28.17726492 124.81271791 25 121 C21.95606633 122.34954763 19.97278312 123.82156266 17.72265625 126.265625 C17.12646484 126.90886719 16.53027344 127.55210937 15.91601562 128.21484375 C15.30435547 128.88644531 14.69269531 129.55804688 14.0625 130.25 C13.45470703 130.90613281 12.84691406 131.56226563 12.22070312 132.23828125 C9.44398358 135.25163601 6.745764 138.28612509 4.18359375 141.484375 C3.46300781 142.31453125 2.74242187 143.1446875 2 144 C1.34 144 0.68 144 0 144 C-1.32 133.11 -2.64 122.22 -4 111 C-14.0686994 113.0112935 -14.0686994 113.0112935 -24.1340332 115.03930664 C-25.38531006 115.28543701 -26.63658691 115.53156738 -27.92578125 115.78515625 C-29.85031128 116.17006226 -29.85031128 116.17006226 -31.8137207 116.56274414 C-35 117 -35 117 -38 116 C-37.55084229 115.19780029 -37.10168457 114.39560059 -36.63891602 113.5690918 C-34.97263757 110.59024951 -33.30866598 107.61014324 -31.64624023 104.62915039 C-30.92645763 103.33957367 -30.20576109 102.05050662 -29.48413086 100.76196289 C-28.44664281 98.90905065 -27.41246241 97.0543264 -26.37890625 95.19921875 C-25.7557251 94.08377686 -25.13254395 92.96833496 -24.49047852 91.8190918 C-22.92172489 89.03826995 -22.92172489 89.03826995 -22 86 C-22.87414551 85.72365723 -23.74829102 85.44731445 -24.64892578 85.16259766 C-27.76760916 84.08062401 -30.64750518 82.83322784 -33.6171875 81.3984375 C-34.63554687 80.90859375 -35.65390625 80.41875 -36.703125 79.9140625 C-38.27320313 79.15222656 -38.27320313 79.15222656 -39.875 78.375 C-40.94492188 77.859375 -42.01484375 77.34375 -43.1171875 76.8125 C-45.74635682 75.54486479 -48.37388302 74.2739434 -51 73 C-51 72.34 -51 71.68 -51 71 C-47.19380871 69.14361774 -43.38518959 67.2923437 -39.57421875 65.44580078 C-38.27763717 64.81667289 -36.98173413 64.18614459 -35.68652344 63.55419922 C-33.82662989 62.64703828 -31.96436859 61.74491197 -30.1015625 60.84375 C-28.98088379 60.29912109 -27.86020508 59.75449219 -26.70556641 59.19335938 C-24 58 -24 58 -22 58 C-26.98910037 47.78295934 -32.24012152 37.80404848 -38 28 C-34.14658401 26.715528 -31.90386226 27.41922755 -27.92578125 28.21484375 C-27.2419487 28.34943497 -26.55811615 28.48402618 -25.8535614 28.62269592 C-23.67171919 29.05382925 -21.49216744 29.49551655 -19.3125 29.9375 C-17.83282096 30.23181779 -16.35300457 30.52544597 -14.87304688 30.81835938 C-11.24707057 31.53758036 -7.62307381 32.26628093 -4 33 C-3.91435791 32.17798096 -3.82871582 31.35596191 -3.74047852 30.5090332 C-3.41992224 27.44307798 -3.09725987 24.37735361 -2.77319336 21.31176758 C-2.56527943 19.33887397 -2.3597718 17.36572725 -2.15429688 15.39257812 C-2.02216797 14.14541016 -1.89003906 12.89824219 -1.75390625 11.61328125 C-1.57323608 9.89298706 -1.57323608 9.89298706 -1.38891602 8.13793945 C-1.04756247 5.38375417 -0.58830353 2.71063626 0 0 Z " fill="#FEDA45" transform="translate(232,184)"/>
</svg>
