<?xml version="1.0" encoding="UTF-8"?>
<svg version="1.1" xmlns="http://www.w3.org/2000/svg" width="800" height="800">
<path d="M0 0 C65.58138978 -0.08573124 131.16278621 -0.16522401 196.74421692 -0.2117157 C197.71544636 -0.21240598 198.68667581 -0.21309627 199.68733644 -0.21380747 C220.79674922 -0.22877337 241.90616259 -0.24262409 263.01557685 -0.25532665 C273.36821347 -0.26156312 283.72084994 -0.26804592 294.07348633 -0.2746582 C295.61877187 -0.2756389 295.61877187 -0.2756389 297.1952753 -0.2766394 C330.56326295 -0.29793129 363.93120816 -0.33547674 397.29917011 -0.3814861 C431.60025411 -0.42869599 465.90131464 -0.4594381 500.20243058 -0.46957495 C505.0515575 -0.47101564 509.90068435 -0.47264382 514.74981117 -0.47438622 C515.70415227 -0.47472333 516.65849337 -0.47506045 517.6417539 -0.47540778 C532.97988732 -0.4813074 548.31794798 -0.50447343 563.65605178 -0.53416017 C579.09064834 -0.56366288 594.52517306 -0.5748233 609.95979681 -0.56750689 C619.12034799 -0.56371528 628.2806354 -0.57374099 637.44113877 -0.60398772 C643.57409258 -0.62284698 649.70687525 -0.62324193 655.83984125 -0.60915907 C659.32563414 -0.60166756 662.81093111 -0.60169295 666.29666915 -0.62441591 C703.03753334 -0.82180874 734.01370464 9.3492039 761 35 C762.67449739 36.65879898 764.34112744 38.32557551 766 40 C766.75539063 40.74636719 767.51078125 41.49273437 768.2890625 42.26171875 C782.15838906 56.66448095 792.08180946 75.65661445 797 95 C797.25226994 95.89350078 797.50453988 96.78700156 797.76445436 97.70757812 C800.69364871 109.28960388 800.42447119 120.76319059 800.39440918 132.63722229 C800.39930314 135.03497523 800.40549527 137.43272581 800.41286707 139.83047241 C800.42581758 145.02658567 800.42953138 150.22261933 800.42490768 155.41874313 C800.41804956 163.14617183 800.42836631 170.87351301 800.44186524 178.60092954 C800.46672919 193.20888444 800.47129644 207.81680269 800.46939927 222.42477537 C800.46802419 233.71002209 800.47185367 244.99525616 800.47932434 256.28050041 C800.4803747 257.90403597 800.48142231 259.52757152 800.4824672 261.15110708 C800.48298655 261.95707645 800.48350589 262.76304581 800.48404097 263.59343849 C800.48456112 264.40091658 800.48508126 265.20839467 800.48561716 266.04034179 C800.48614115 266.84921319 800.48666514 267.65808459 800.48720502 268.49146724 C800.50178162 291.23161652 800.51007384 313.97176116 800.50545502 336.71191502 C800.50528306 337.56858588 800.50511111 338.42525674 800.50493394 339.30788732 C800.5040451 343.64944022 800.50310029 347.99099311 800.50213593 352.332546 C800.5019449 353.19472899 800.50175387 354.05691197 800.50155704 354.94522171 C800.50116995 356.68876485 800.50077962 358.43230798 800.50038607 360.17585112 C800.49441875 387.29313159 800.50984518 414.41032667 800.54199219 441.52758789 C800.57811464 472.02385119 800.59739554 502.52006036 800.59245348 533.0163464 C800.59198354 536.27182734 800.59157328 539.52730828 800.59120178 542.78278923 C800.5910994 543.58431592 800.59099701 544.38584261 800.59089152 545.21165799 C800.58969945 557.2823153 800.60162785 569.35291388 800.62034607 581.42355537 C800.64164172 595.16256741 800.64537343 608.90145672 800.62604648 622.64047433 C800.61576509 630.31695011 800.61907486 637.993126 800.64257733 645.6695743 C800.6586146 651.42071287 800.64814286 657.17157153 800.62785631 662.9226855 C800.62369165 665.23487369 800.62779779 667.54709637 800.64145225 669.85924799 C800.82758659 703.70846717 790.25110461 734.1267899 766.6875 759.00390625 C764.7847976 760.81892015 764.7847976 760.81892015 765 763 C763.65126004 763.88732892 762.29767568 764.76764335 760.9296875 765.625 C758.64965399 767.24963926 756.7609079 769.11421553 754.75 771.0625 C738.31362426 786.04280042 717.38798953 794.20425908 696 799 C695.33150308 799.17169098 694.66300615 799.34338197 693.97425175 799.52027571 C689.76085567 800.1998646 685.61544408 800.14259516 681.35411072 800.13701439 C680.37199954 800.13966622 679.38988836 800.14231804 678.37801623 800.14505023 C675.06702404 800.1527468 671.75606891 800.15330254 668.44506836 800.15390015 C666.05508509 800.15791456 663.6651025 800.16235275 661.27512074 800.1671797 C655.38233931 800.17789703 649.48956361 800.18390193 643.59677481 800.18788858 C636.5387763 800.1929006 629.48078933 800.2036288 622.42279764 800.21437032 C605.3591631 800.23999703 588.29552408 800.25503723 571.23187583 800.26788078 C565.57759924 800.27213674 559.92332297 800.27670251 554.26904678 800.2814641 C524.18845662 800.30673057 494.1078659 800.32877307 464.02726746 800.34119225 C457.05789183 800.34411346 450.08851622 800.347081 443.11914062 800.35009766 C442.25330255 800.35046857 441.38746447 800.35083947 440.49538888 800.35122162 C412.44750561 800.36336656 384.39968523 800.39429249 356.35183148 800.43601918 C327.50333558 800.47885846 298.65487288 800.50543998 269.80634432 800.51066696 C265.726782 800.51140734 261.64721973 800.51231802 257.56765747 800.51332474 C256.76481228 800.51351535 255.96196708 800.51370597 255.13479324 800.51390236 C242.24332371 800.51740831 229.35193322 800.53767128 216.46049266 800.56412137 C203.48535388 800.5903403 190.51030591 800.5979622 177.53514445 800.58702008 C169.83870902 800.58106854 162.14258284 800.58882064 154.44619456 800.61685092 C148.67984061 800.63628662 142.91375076 800.6291885 137.14740002 800.61228175 C134.8288811 800.60949486 132.51033254 800.61500638 130.19186103 800.63009469 C95.06788749 800.84452818 64.61177494 789.34429802 39 765 C37.32550261 763.34120102 35.65887256 761.67442449 34 760 C33.24460938 759.25363281 32.48921875 758.50726562 31.7109375 757.73828125 C23.91525263 749.64276235 10 733.71682358 10 722 C9.34 721.67 8.68 721.34 8 721 C7.25390625 719.20922852 7.25390625 719.20922852 6.5625 716.87890625 C6.17964844 715.59790039 6.17964844 715.59790039 5.7890625 714.29101562 C5.39847656 712.94040039 5.39847656 712.94040039 5 711.5625 C4.60941406 710.2640918 4.60941406 710.2640918 4.2109375 708.93945312 C1.23446101 698.84498867 -0.29727601 689.52109993 -0.24609566 678.97791862 C-0.24840335 677.79971397 -0.25071103 676.62150931 -0.25308865 675.40760148 C-0.257457 672.14979347 -0.2529071 668.89214148 -0.24453239 665.63434594 C-0.23763442 662.08550069 -0.24241119 658.53666759 -0.24568737 654.98781979 C-0.24982697 648.77237744 -0.24656076 642.55697345 -0.23841095 636.34153557 C-0.22632627 627.09945584 -0.2257407 617.85740023 -0.22749493 608.61531404 C-0.23012112 593.06764095 -0.22344602 577.51998488 -0.21146011 561.97231674 C-0.19962391 546.57936392 -0.19192778 531.18641819 -0.18975449 515.79346085 C-0.18961701 514.83618262 -0.18947953 513.87890439 -0.18933788 512.89261773 C-0.18866121 508.03103629 -0.18805845 503.16945484 -0.18748413 498.30787338 C-0.18328391 463.87809566 -0.16981085 429.4483272 -0.15087891 395.01855469 C-0.13250863 361.57161508 -0.11834209 328.12467801 -0.10986328 294.67773438 C-0.10960023 293.646657 -0.10933718 292.61557963 -0.10906615 291.55325749 C-0.1064291 281.19870436 -0.10387747 270.8441512 -0.10138843 260.48959804 C-0.09631608 239.39639571 -0.09067358 218.30319354 -0.08468628 197.20999146 C-0.0844117 196.24017151 -0.08413712 195.27035156 -0.08385422 194.27114313 C-0.06545455 129.51409157 -0.03376434 64.75704515 0 0 Z " fill="#663399" transform="translate(0,0)"/>
<path d="M0 0 C0.93972656 0.30035156 1.87945312 0.60070312 2.84765625 0.91015625 C9.30860428 3.2169244 14.58453436 6.84202384 20 11 C20.61617187 11.44988281 21.23234375 11.89976562 21.8671875 12.36328125 C30.51340402 19.11689277 36.74615311 29.00583185 41 39 C41.35707031 39.8146875 41.71414063 40.629375 42.08203125 41.46875 C44.28290599 46.94208644 45.6570659 52.47109456 46.75 58.25 C46.87777832 58.89203369 47.00555664 59.53406738 47.13720703 60.19555664 C48.42063092 67.61721253 48 74.17520517 48 82 C30.51 82 13.02 82 -5 82 C-5.99 75.73 -6.98 69.46 -8 63 C-10.23379506 57.1673129 -12.33822855 52.14257401 -17.78515625 48.76953125 C-25.03799083 46.24958696 -33.89693955 47.4631927 -41 50 C-46.80004894 53.73780932 -49.15906797 58.49537348 -51 65 C-51.96682221 76.77765243 -51.75851321 89.82377096 -43.7734375 99.26953125 C-35.24869068 107.58773134 -23.20545813 112.19964193 -12.40820312 116.88305664 C1.63120284 122.98251199 14.58344318 129.63152053 26 140 C26.70382812 140.61101562 27.40765625 141.22203125 28.1328125 141.8515625 C45.15876051 157.54214204 51.23313044 180.16694031 52.31640625 202.546875 C53.08173986 228.0616192 47.76442478 250.40579286 32.6875 271.1875 C18.54868242 285.983937 -2.05111282 295.00697723 -22.5234375 295.56640625 C-25.47517753 295.61145694 -28.42322012 295.59725925 -31.375 295.5625 C-32.14280792 295.55857239 -32.91061584 295.55464478 -33.70169067 295.55059814 C-45.12554386 295.46818205 -55.46710762 294.70062966 -66 290 C-67.08152344 289.55398438 -68.16304688 289.10796875 -69.27734375 288.6484375 C-86.80749393 280.73444789 -97.90862652 266.4245177 -105 249 C-109.99582332 235.14523461 -111 223.12244567 -111 208 C-92.85 208 -74.7 208 -56 208 C-55.01 214.435 -55.01 214.435 -54 221 C-52.11211956 229.23577538 -50.27957351 236.01517904 -43.359375 241.23828125 C-36.60054778 245.37025335 -28.95922598 244.69370125 -21.375 243.6328125 C-15.83416686 242.26632325 -13.26338785 239.53971304 -10.19140625 234.83984375 C-5.56221301 223.8056684 -4.112669 206.40744589 -8.16796875 195.05078125 C-9.58375723 192.15005267 -11.10489767 189.60747815 -13 187 C-13.70125 185.9275 -14.4025 184.855 -15.125 183.75 C-23.72134599 175.52740818 -33.9145342 171.07902453 -44.63647461 166.28515625 C-58.48909022 160.05453661 -72.78608875 153.44529519 -84 143 C-84.90878906 142.19304687 -85.81757813 141.38609375 -86.75390625 140.5546875 C-98.56217755 129.53363429 -103.97256449 117.67892917 -107 102 C-107.22429687 100.9790625 -107.44859375 99.958125 -107.6796875 98.90625 C-112.05518574 76.12968383 -109.72630766 49.7973978 -97.046875 29.94140625 C-95.11120248 27.21890502 -93.09468389 24.60132491 -91 22 C-90.29617188 21.05060547 -90.29617188 21.05060547 -89.578125 20.08203125 C-78.46994897 5.80475795 -60.43596262 -1.23425517 -43.0078125 -3.64453125 C-28.26021522 -5.13927209 -14.10393454 -4.7121816 0 0 Z " fill="#FEFDFE" transform="translate(505,443)"/>
<path d="M0 0 C15.94696646 13.46710891 22.54780149 34.66366192 25.05078125 54.6875 C25.05078125 59.3075 25.05078125 63.9275 25.05078125 68.6875 C7.23078125 68.6875 -10.58921875 68.6875 -28.94921875 68.6875 C-29.60921875 62.4175 -30.26921875 56.1475 -30.94921875 49.6875 C-33.54824125 42.82896841 -35.40492341 38.95964767 -41.94921875 35.6875 C-48.11916497 33.63085126 -56.30713307 33.51192483 -62.5390625 35.5234375 C-67.46187607 38.33917348 -70.67358636 42.53070214 -72.94921875 47.6875 C-76.01166863 59.0400212 -74.65190536 72.67884321 -69.19921875 83 C-60.01532288 93.96965341 -45.86996906 99.10714647 -32.9375 104.53125 C-9.38650909 114.63075072 12.25875048 129.55395877 22.42578125 154 C27.00711836 166.64397758 28.56063531 179.17604353 28.44189453 192.54199219 C28.42578129 194.68749488 28.44187772 196.83111523 28.4609375 198.9765625 C28.49647494 222.06454356 22.52252629 243.23358342 6.4140625 260.34375 C-10.69185934 277.30830059 -31.12452171 281.99651056 -54.51171875 282.1875 C-55.55002838 282.20343704 -55.55002838 282.20343704 -56.60931396 282.21969604 C-76.15323502 282.44906306 -95.28549965 277.27342156 -109.94921875 263.6875 C-123.77747213 250.01260987 -130.48109142 232.49542129 -133.94921875 213.6875 C-133.94921875 207.4175 -133.94921875 201.1475 -133.94921875 194.6875 C-115.79921875 194.6875 -97.64921875 194.6875 -78.94921875 194.6875 C-78.28921875 200.2975 -77.62921875 205.9075 -76.94921875 211.6875 C-73.99085831 218.94893017 -71.64750032 224.50107402 -64.94921875 228.6875 C-57.32460271 231.67336362 -48.71233265 232.09777545 -40.94921875 229.25 C-36.04736146 226.69563767 -33.7803297 222.78372446 -31.94921875 217.6875 C-28.55359409 205.85930831 -27.51991031 190.28603209 -32.69921875 178.90234375 C-39.6560209 166.57575994 -50.4529947 161.12512563 -63.01171875 155.3125 C-65.4111807 154.17664076 -67.80962053 153.0386198 -70.20703125 151.8984375 C-71.36235352 151.35026367 -72.51767578 150.80208984 -73.70800781 150.23730469 C-85.33464104 144.67795942 -95.94505784 138.88514323 -105.94921875 130.6875 C-106.68527344 130.11515625 -107.42132812 129.5428125 -108.1796875 128.953125 C-117.50437533 121.3779434 -122.82600654 111.79814053 -126.94921875 100.6875 C-127.24570312 100.02492188 -127.5421875 99.36234375 -127.84765625 98.6796875 C-136.01263502 80.00533013 -134.14409875 50.1477226 -127.26171875 31.4375 C-119.46483562 11.644125 -106.58592344 -2.68200932 -87.13671875 -11.6875 C-58.08680202 -23.16715974 -24.58425906 -19.27666406 0 0 Z " fill="#FEFDFE" transform="translate(707.94921875,456.3125)"/>
<path d="M0 0 C1.26714844 -0.00386719 2.53429687 -0.00773437 3.83984375 -0.01171875 C14.27181115 -0.00086342 23.08931576 0.54057089 32.875 4.25 C33.70499512 4.56203369 34.53499023 4.87406738 35.39013672 5.19555664 C53.50118581 12.2387424 66.36792528 24.73322552 74.67724609 42.20800781 C82.26941623 59.89753893 81.5 76.51472917 81.5 96.125 C62.03 96.125 42.56 96.125 22.5 96.125 C22.17 88.865 21.84 81.605 21.5 74.125 C18.47397747 65.04693241 16.29545274 60.32196849 8.5 55.125 C2.09325633 52.8972005 -6.44470381 52.89049085 -12.88671875 54.8515625 C-18.67165679 57.93853595 -21.76054375 62.7163064 -23.84726429 68.7896204 C-26.41791274 77.98697219 -26.79422425 87.21280551 -26.7746582 96.70532227 C-26.77976913 98.00613739 -26.78488007 99.30695251 -26.79014587 100.64718628 C-26.80340345 104.17812265 -26.80412983 107.70895114 -26.80158257 111.2399075 C-26.8005044 114.20199262 -26.80541733 117.16405665 -26.810188 120.1261372 C-26.82123602 127.11885724 -26.82174637 134.11152353 -26.81567383 141.10424805 C-26.80962922 148.29002685 -26.82196816 155.47561009 -26.8432439 162.66135556 C-26.86091544 168.86045682 -26.86685279 175.05949613 -26.86360615 181.25862163 C-26.86180297 184.94823635 -26.86433272 188.63771132 -26.87832069 192.32730293 C-26.89334469 196.44302016 -26.8838806 200.55834381 -26.87231445 204.67407227 C-26.87995819 205.87802139 -26.88760193 207.08197052 -26.89547729 208.32240295 C-26.83111542 218.72490826 -25.29185871 230.91844973 -17.86328125 238.87890625 C-11.87142756 244.27287432 -6.59640252 245.65787816 1.42578125 245.5 C7.68308632 244.73672009 12.49377946 241.81578223 16.375 236.875 C22.71265778 225.69089803 21.82533049 217.61839016 22.5 204.125 C41.97 204.125 61.44 204.125 81.5 204.125 C81.5 234.41350581 78.46207513 256.16184169 57.5 278.125 C35.97653825 296.90682021 10.2872999 299.28051938 -17.07666016 298.00488281 C-30.87842719 297.05345474 -44.14262796 293.16662919 -55.5 285.125 C-56.33015625 284.53976562 -57.1603125 283.95453125 -58.015625 283.3515625 C-74.47712029 270.98019334 -82.54407664 253.13010115 -85.54541969 233.1782856 C-87.3343765 219.55687722 -86.93654509 205.71010599 -86.90297651 191.99666739 C-86.89526241 187.84649706 -86.90245724 183.69634442 -86.90713501 179.5461731 C-86.91255776 172.58526984 -86.90549211 165.62446279 -86.89111328 158.66357422 C-86.87478063 150.6654725 -86.88009388 142.66760025 -86.8965925 134.66950405 C-86.91029216 127.7457148 -86.91208635 120.82199383 -86.90427649 113.89819539 C-86.89964782 109.78763079 -86.89884028 105.67717336 -86.90888596 101.56661606 C-86.96823845 73.40157875 -86.9475833 44.44096689 -65.875 22.875 C-47.70700426 5.09355736 -24.58891924 -0.07504248 0 0 Z " fill="#FDFDFE" transform="translate(290.5,439.875)"/>
</svg>
