<?xml version="1.0" standalone="no"?>
<!DOCTYPE svg PUBLIC "-//W3C//DTD SVG 20010904//EN"
 "http://www.w3.org/TR/2001/REC-SVG-20010904/DTD/svg10.dtd">
<svg version="1.0" xmlns="http://www.w3.org/2000/svg"
 width="512.000000pt" height="512.000000pt" viewBox="0 0 512.000000 512.000000"
 preserveAspectRatio="xMidYMid meet">

<g transform="translate(0.000000,512.000000) scale(0.100000,-0.100000)"
fill="#000000" stroke="none">
<path d="M259 5101 c-117 -37 -202 -123 -239 -240 -20 -62 -20 -89 -20 -2301
0 -2212 0 -2239 20 -2301 37 -119 123 -203 242 -241 57 -17 149 -18 2298 -18
2212 0 2239 0 2301 20 119 37 203 123 241 242 17 57 18 149 18 2298 0 2149 -1
2241 -18 2298 -38 119 -122 205 -241 242 -62 20 -88 20 -2305 19 -2124 0
-2244 -1 -2297 -18z m1396 -1097 c71 -25 156 -111 180 -184 58 -170 -20 -349
-179 -409 -187 -70 -377 -12 -462 141 -27 49 -29 61 -29 153 0 84 4 107 22
141 47 88 116 144 212 171 59 17 190 10 256 -13z m1900 -859 c101 -28 213 -92
285 -165 77 -78 123 -153 162 -262 55 -157 58 -195 58 -859 l0 -609 -310 0
-310 0 0 548 c0 432 -3 561 -14 613 -26 122 -75 192 -164 236 -79 39 -191 40
-272 2 -72 -34 -132 -96 -172 -177 l-33 -67 -3 -577 -3 -578 -310 0 -309 0 0
940 0 940 310 0 310 0 0 -132 1 -133 25 30 c14 17 43 51 64 77 73 86 217 165
345 188 71 13 269 4 340 -15z m-1737 -957 l2 -938 -315 0 -315 0 0 933 c0 514
3 937 7 940 4 4 144 6 312 5 l306 -3 3 -937z"/>
</g>
</svg>
