<?xml version="1.0" encoding="UTF-8"?>
<svg version="1.1" xmlns="http://www.w3.org/2000/svg" width="1200" height="1200">
<path d="M0 0 C1.45696289 0.72654785 1.45696289 0.72654785 2.94335938 1.46777344 C33.17974455 16.62647023 61.40185667 35.15560011 88 56 C88.85078125 56.66644531 89.7015625 57.33289063 90.578125 58.01953125 C100.1393685 65.59141925 109.44676246 73.48271549 118.46166992 81.69726562 C120.05473816 83.14247286 121.65459434 84.58026957 123.26416016 86.00708008 C129.29578188 91.36145161 135.07943013 96.9234778 140.76928711 102.63891602 C142.19337492 104.06839717 143.62278044 105.49240511 145.05273438 106.91601562 C150.24510847 112.11562647 155.24524739 117.39843774 160 123 C160.94969143 124.09447024 161.90018153 125.18824809 162.8515625 126.28125 C179.52303192 145.58458714 195.15750108 165.55643825 209 187 C209.45020508 187.68932617 209.90041016 188.37865234 210.36425781 189.08886719 C264.67040895 272.35333606 295.43656408 370.81232128 286.625 590.75 C285.4748006 596.18028026 284.25028672 601.59197548 283 607 C282.73493652 608.15790039 282.46987305 609.31580078 282.19677734 610.50878906 C273.45062126 648.04871669 259.54024654 684.25604417 243 719 C242.57138672 719.90782227 242.14277344 720.81564453 241.70117188 721.75097656 C223.47245071 760.14261144 199.23790185 796.99238678 171.453125 829.14453125 C169.01053637 831.98773553 166.65782084 834.88882623 164.3125 837.8125 C161.11831705 841.74117422 157.78945732 845.37089272 154.1171875 848.85546875 C152.26766941 850.7288736 150.5628737 852.64596061 148.84765625 854.640625 C144.63097302 859.49597874 140.11891875 864.02779572 135.5625 868.5625 C134.75490234 869.37396484 133.94730469 870.18542969 133.11523438 871.02148438 C128.79234373 875.33740823 124.39444101 879.49587942 119.76245117 883.47827148 C117.41035318 885.50911049 115.14755384 887.63089835 112.875 889.75 C107.6671532 894.49875287 102.22300397 898.85233192 96.6484375 903.16015625 C94.22936232 905.03096799 91.84147526 906.93228548 89.4765625 908.87109375 C21.0333868 964.90666132 -63.61027511 999.74500917 -150 1016 C-151.03721191 1016.19577637 -152.07442383 1016.39155273 -153.14306641 1016.59326172 C-182.60208012 1022.02404109 -213.11710451 1024.22817496 -243.0625 1024.1875 C-243.82913971 1024.18722809 -244.59577942 1024.18695618 -245.38565063 1024.18667603 C-270.03949387 1024.14705032 -294.58935371 1022.53292413 -319 1019 C-320.12986328 1018.83661133 -321.25972656 1018.67322266 -322.42382812 1018.50488281 C-401.98731165 1006.69911085 -477.41211418 977.6417127 -592 897 C-593.19129362 896.00507346 -594.38269541 895.01027642 -595.57421875 894.015625 C-608.14740734 883.45036946 -619.98778043 872.07983953 -631.625 860.5 C-632.582854 859.54915527 -632.582854 859.54915527 -633.56005859 858.57910156 C-637.33444528 854.7917923 -640.91100578 850.88131419 -644.40576172 846.83496094 C-646.46611479 844.46350402 -648.60770293 842.17242893 -650.75 839.875 C-655.57360974 834.5902561 -659.97968045 829.04788315 -664.35546875 823.390625 C-666.63028958 820.45357673 -668.98711494 817.59625422 -671.375 814.75 C-694.72465557 786.26673221 -713.5318721 753.83701504 -730 721 C-730.4326416 720.13874512 -730.8652832 719.27749023 -731.31103516 718.39013672 C-748.31243283 684.2763065 -760.90700864 647.98610268 -770 611 C-770.2273584 610.09282227 -770.4547168 609.18564453 -770.68896484 608.25097656 C-793.14899618 517.91722415 -790.35499848 418.83399899 -726.05224609 237.046875 C-725.33186749 235.64556311 -724.61627307 234.24178433 -723.90478516 232.8359375 C-714.26526499 213.79736691 -703.16280906 195.53247903 -691 178 C-690.60925293 177.43587402 -690.21850586 176.87174805 -689.81591797 176.29052734 C-669.59578592 147.24526206 -646.58011419 120.55143942 -621.625 95.5 C-620.79282959 94.66315674 -619.96065918 93.82631348 -619.10327148 92.96411133 C-614.22898025 88.10250467 -609.22942051 83.47500786 -604 79 C-602.80852934 77.9546805 -601.61839838 76.90783179 -600.4296875 75.859375 C-592.79042852 69.16185501 -585.03491854 62.67884826 -576.96533203 56.50585938 C-575.59303916 55.45439323 -574.22451205 54.39800206 -572.85888672 53.33789062 C-499.9792912 -3.18418001 -411.63764023 -40.14085212 0 0 Z M-138 33 C-134.82273508 36.81271791 -131.600001 40.45516471 -128.0625 43.9375 C-124.16119282 47.79472462 -120.56384524 51.83188042 -117 56 C-116.10596206 57.03037616 -115.21138818 58.06028744 -114.31640625 59.08984375 C-95.97761488 80.24648024 -79.2296535 102.50450537 -64 126 C-63.48872559 126.78165527 -62.97745117 127.56331055 -62.45068359 128.36865234 C-50.87731502 146.09190198 -40.72896933 164.61939056 -30.9375 183.375 C-30.15161499 184.87957764 -30.15161499 184.87957764 -29.34985352 186.41455078 C-26.01043741 192.87525459 -23.02163632 199.3524001 -20 206 C28.18 206 76.36 206 126 206 C117.06583459 194.08777945 107.82435971 182.64449369 97.62109375 171.8046875 C95.57814326 169.61863914 93.61515198 167.41071457 91.6875 165.125 C84.12748441 156.39187854 75.69722962 148.04701296 66.875 140.59375 C64.59616622 138.65674129 62.39675343 136.64094375 60.1875 134.625 C29.03354171 106.6193301 -6.70355707 84.75102313 -44 66 C-44.85416504 65.56558594 -45.70833008 65.13117188 -46.58837891 64.68359375 C-71.77033026 51.93217322 -109.38783233 33 -138 33 Z M-538.0703125 126.47265625 C-540.95745387 128.96329688 -543.90286667 131.36182241 -546.875 133.75 C-550.59331082 136.77415438 -554.02788119 139.90708077 -557.35546875 143.3515625 C-559.00264502 145.00265131 -560.71783942 146.49642127 -562.5 148 C-571.37228018 155.65689933 -579.8568089 164.17926334 -587.4140625 173.13671875 C-589.30191407 175.35471185 -591.27702792 177.48242155 -593.25 179.625 C-600.76460222 187.95025281 -607.48520736 196.87929031 -614 206 C-565.82 206 -517.64 206 -468 206 C-461.07 191.645 -461.07 191.645 -454 177 C-450.17035688 170.07182744 -446.35478059 163.18669723 -442.36767578 156.35644531 C-441.19107862 154.32922007 -440.0379765 152.29252594 -438.90234375 150.2421875 C-422.74989575 121.2295102 -403.14285085 93.57752136 -381.33740234 68.54345703 C-379.9065125 66.8921088 -378.49302052 65.22697125 -377.08203125 63.55859375 C-371.56341118 57.04586977 -365.92418904 50.67651643 -360.10473633 44.4309082 C-356.63150607 40.7014799 -353.2711128 36.90716251 -350 33 C-411.64081418 33 -493.90236889 88.10576888 -538.0703125 126.47265625 Z M-291.23144531 50.57324219 C-294.00593851 53.1742189 -296.81510898 55.70883425 -299.703125 58.18359375 C-304.55079746 62.4046963 -309.08552197 66.93512453 -313.6184082 71.48803711 C-315.06025221 72.93524385 -316.50737116 74.37702026 -317.95507812 75.81835938 C-323.18365112 81.04284632 -328.20314476 86.37716623 -333 92 C-334.02125207 93.15688081 -335.04465792 94.31186427 -336.0703125 95.46484375 C-344.17254368 104.64649698 -351.68495017 114.1833466 -359 124 C-359.48742676 124.65000977 -359.97485352 125.30001953 -360.47705078 125.96972656 C-367.31745016 135.10113534 -373.79013085 144.42963183 -380 154 C-380.6818335 155.04269043 -380.6818335 155.04269043 -381.37744141 156.10644531 C-391.86187279 172.18377234 -401.41618281 188.83236561 -410 206 C-363.8 206 -317.6 206 -270 206 C-270.33 149.24 -270.66 92.48 -271 34 C-276.606259 34 -286.97925083 46.5846246 -291.23144531 50.57324219 Z M-217 34 C-217.33 90.76 -217.66 147.52 -218 206 C-171.8 206 -125.6 206 -78 206 C-90.65393625 181.8926191 -90.65393625 181.8926191 -104.86425781 158.70068359 C-106.06222142 156.90682838 -107.24660892 155.10448353 -108.4296875 153.30078125 C-119.70728517 136.16704109 -131.83797598 119.73860295 -145 104 C-145.44037598 103.47325684 -145.88075195 102.94651367 -146.33447266 102.40380859 C-157.26817211 89.37083885 -168.8722062 77.05178956 -180.875 65 C-181.6594751 64.21085205 -182.4439502 63.4217041 -183.25219727 62.60864258 C-187.45209379 58.4203246 -191.73531084 54.39646931 -196.23144531 50.52783203 C-199.30347371 47.87394554 -202.24957243 45.08058838 -205.21484375 42.30859375 C-208.91537535 39.24125269 -213.00074394 36.66617071 -217 34 Z M-649 259 C-654.62665801 269.6281318 -660.10168525 280.1126035 -665 291.0625 C-665.29714905 291.72364807 -665.5942981 292.38479614 -665.90045166 293.065979 C-688.56886684 343.62190436 -705 400.26524442 -705 456 C-646.59 456 -588.18 456 -528 456 C-526.68 440.82 -525.36 425.64 -524 410 C-518.29194997 362.79288354 -508.56339404 317.24955127 -494 272 C-492.68 267.71 -491.36 263.42 -490 259 C-542.47 259 -594.94 259 -649 259 Z M-434 259 C-440.52626509 276.62091576 -446.79316805 293.99051947 -452 312 C-452.3000293 313.02851074 -452.60005859 314.05702148 -452.90917969 315.11669922 C-463.18246234 350.6586722 -469.49750727 387.20539211 -473 424 C-473.10586426 425.09989258 -473.21172852 426.19978516 -473.32080078 427.33300781 C-473.61750467 430.45051461 -473.90533619 433.56864595 -474.1875 436.6875 C-474.2714502 437.60088135 -474.35540039 438.5142627 -474.44189453 439.45532227 C-474.51649902 440.31955811 -474.59110352 441.18379395 -474.66796875 442.07421875 C-474.73266357 442.81244873 -474.7973584 443.55067871 -474.86401367 444.3112793 C-475.06083399 448.20280913 -475 452.1034961 -475 456 C-407.68 456 -340.36 456 -271 456 C-271 390.99 -271 325.98 -271 259 C-324.79 259 -378.58 259 -434 259 Z M-217 259 C-217 324.01 -217 389.02 -217 456 C-149.68 456 -82.36 456 -13 456 C-13.82277649 438.17785895 -13.82277649 438.17785895 -15.3125 420.4375 C-15.50815552 418.54161133 -15.50815552 418.54161133 -15.70776367 416.60742188 C-19.83591019 377.78496961 -27.65379023 339.83871157 -38.8125 302.4375 C-39.17827148 301.19830811 -39.54404297 299.95911621 -39.92089844 298.68237305 C-44.03146454 285.18993245 -49.07319467 272.30237438 -54 259 C-107.79 259 -161.58 259 -217 259 Z M2 259 C4.64 267.25 7.28 275.5 10 284 C11.69093615 289.65803673 13.36222761 295.31030263 14.9375 301 C15.14144379 301.73448364 15.34538757 302.46896729 15.55551147 303.22570801 C23.6980247 332.72626644 29.94333464 362.66682734 34 393 C34.21946289 394.62905273 34.21946289 394.62905273 34.44335938 396.29101562 C37.05379978 416.13281385 38.38192059 436.04368729 40 456 C98.41 456 156.82 456 217 456 C217.03699414 445.81918774 217.03699414 445.81918774 216.3125 435.75 C216.22637451 434.97245361 216.14024902 434.19490723 216.05151367 433.39379883 C212.19829695 400.45581588 205.3835393 368.52733291 195 337 C194.71688965 336.12762695 194.4337793 335.25525391 194.14208984 334.35644531 C187.45820841 313.88581144 178.88269276 294.11734009 169 275 C166.36 269.72 163.72 264.44 161 259 C108.53 259 56.06 259 2 259 Z M-705 510 C-705.077725 519.21871005 -705.077725 519.21871005 -704.484375 528.26953125 C-704.3699707 529.33010742 -704.25556641 530.39068359 -704.13769531 531.48339844 C-704.00975586 532.58200195 -703.88181641 533.68060547 -703.75 534.8125 C-703.61432617 535.98973633 -703.47865234 537.16697266 -703.33886719 538.37988281 C-701.99028307 549.6769385 -700.23143833 560.84454486 -698 572 C-697.7736084 573.13824219 -697.5472168 574.27648437 -697.31396484 575.44921875 C-683.09393924 646.29262696 -683.09393924 646.29262696 -648 707 C-645.96238813 707.09678239 -643.92136288 707.12186965 -641.88145447 707.12025452 C-641.23539877 707.12110894 -640.58934307 707.12196337 -639.92370993 707.12284368 C-637.74330183 707.12450024 -635.56296945 707.11897429 -633.38256836 707.11352539 C-631.82579042 707.11324353 -630.26901236 707.11340123 -628.7122345 707.1139679 C-624.47274796 707.11425592 -620.23328946 707.10835846 -615.99380946 707.10139394 C-611.5681858 707.09516115 -607.14256157 707.09455666 -602.7169342 707.09336853 C-594.33046022 707.09025499 -585.9439992 707.0820413 -577.55753094 707.07201904 C-568.01234651 707.0608586 -558.46716148 707.05534763 -548.92197216 707.05032361 C-529.28130752 707.03985871 -509.64065458 707.02225883 -490 707 C-490.46694023 705.52646561 -490.46694023 705.52646561 -490.9433136 704.02316284 C-492.12115145 700.30402427 -493.29583996 696.58389673 -494.46968079 692.86349487 C-494.97375365 691.26732585 -495.47862906 689.67141001 -495.98439026 688.07577515 C-514.55027522 629.48876193 -523.03256052 571.26508696 -528 510 C-586.41 510 -644.82 510 -705 510 Z M-475 510 C-474.3759731 523.1045649 -473.71030673 536.04264715 -472.3125 549.0625 C-472.22763336 549.86205109 -472.14276672 550.66160217 -472.05532837 551.48538208 C-467.2751331 595.98561796 -457.36846426 639.1593623 -443.25 681.625 C-443.01752563 682.32477966 -442.78505127 683.02455933 -442.54553223 683.74554443 C-441.87327162 685.76155219 -441.19570318 687.77567979 -440.515625 689.7890625 C-440.12665039 690.94100098 -439.73767578 692.09293945 -439.33691406 693.27978516 C-437.6773417 697.89785742 -435.82249438 702.44376404 -434 707 C-379.88 707 -325.76 707 -270 707 C-270.33 641.99 -270.66 576.98 -271 510 C-338.32 510 -405.64 510 -475 510 Z M-217 510 C-217.33 575.01 -217.66 640.02 -218 707 C-163.88 707 -109.76 707 -54 707 C-45.93955712 685.54266071 -45.93955712 685.54266071 -38.875 663.8125 C-38.67410767 663.13920654 -38.47321533 662.46591309 -38.26623535 661.7722168 C-25.83453902 620.03706379 -17.98869643 577.59166746 -14.25 534.1875 C-14.18479156 533.43293518 -14.11958313 532.67837036 -14.05239868 531.90093994 C-13.42806181 524.57208209 -13 517.37045706 -13 510 C-80.32 510 -147.64 510 -217 510 Z M40 510 C38.68 525.18 37.36 540.36 36 556 C30.4492132 601.90650707 21.33629821 646.59150553 7.08876038 690.59973145 C5.99202638 694.02490213 4.92709134 697.45842268 3.87231445 700.89672852 C3.51949905 702.04601334 3.16668365 703.19529816 2.80317688 704.37940979 C2.53812851 705.24420456 2.27308014 706.10899933 2 707 C22.51410897 707.18683672 43.02807778 707.32793296 63.5428648 707.41449738 C73.06817239 707.4557583 82.59295152 707.51201562 92.11791992 707.60351562 C100.41940036 707.68322442 108.72049814 707.73485866 117.02235061 707.75270796 C121.41884688 707.76314308 125.81424838 707.78768319 130.21039391 707.84584045 C134.34834816 707.90013863 138.48475685 707.91689457 142.62303352 707.90486145 C144.14166032 707.90706267 145.66033869 707.92298265 147.17865753 707.9536438 C155.11643561 708.42855316 155.11643561 708.42855316 161.98030853 705.25871754 C163.29292948 703.20061456 164.17584243 701.29080296 165 699 C165.52352051 698.05406982 166.04704102 697.10813965 166.58642578 696.13354492 C195.58001641 639.52676278 217 574.1072707 217 510 C158.59 510 100.18 510 40 510 Z M-614 760 C-609.13394004 766.48807995 -604.18869143 772.77837462 -599 779 C-598.55914063 779.52867676 -598.11828125 780.05735352 -597.6640625 780.60205078 C-584.52626824 796.2959625 -570.60629243 811.95651865 -555.015625 825.265625 C-552.69885379 827.25912581 -550.44580016 829.31554388 -548.1875 831.375 C-531.37671006 846.486962 -512.99829125 859.78795938 -494 872 C-493.22172852 872.50708496 -492.44345703 873.01416992 -491.64160156 873.53662109 C-476.33263812 883.48156641 -460.31577441 891.86195563 -444 900 C-443.14889648 900.42684082 -442.29779297 900.85368164 -441.42089844 901.29345703 C-415.58894138 914.16441254 -387.43295412 923.81126669 -359.5625 931.25 C-358.8003418 931.45463867 -358.03818359 931.65927734 -357.25292969 931.87011719 C-353.56163413 932.9680402 -353.56163413 932.9680402 -350 932 C-350.85464844 931.15695312 -351.70929688 930.31390625 -352.58984375 929.4453125 C-353.70586047 928.33867407 -354.82173872 927.23189598 -355.9375 926.125 C-356.50146484 925.56941406 -357.06542969 925.01382813 -357.64648438 924.44140625 C-361.88671875 920.2265625 -361.88671875 920.2265625 -363 918 C-363.66 918 -364.32 918 -365 918 C-365.22558594 917.45472656 -365.45117188 916.90945313 -365.68359375 916.34765625 C-367.39149969 913.30180619 -369.67089558 910.9472184 -372.0625 908.4375 C-377.30433435 902.82345425 -382.22012288 897.01521698 -387 891 C-387.6496875 890.18378174 -387.6496875 890.18378174 -388.3125 889.35107422 C-412.3847375 859.06416461 -433.39884428 826.86495777 -451.75 792.8125 C-452.63461914 791.17631714 -452.63461914 791.17631714 -453.53710938 789.50708008 C-458.71232704 779.80211098 -463.27436322 769.9763443 -468 760 C-516.18 760 -564.36 760 -614 760 Z M-410 760 C-403.0500832 773.93329499 -403.0500832 773.93329499 -395.5 787.5 C-394.91250977 788.50337402 -394.32501953 789.50674805 -393.71972656 790.54052734 C-378.81737612 815.68677695 -361.69012375 839.54043953 -343 862 C-341.77216797 863.49080078 -341.77216797 863.49080078 -340.51953125 865.01171875 C-329.88416019 877.83684245 -318.31517103 889.76425496 -306.5625 901.5625 C-305.73435791 902.39531494 -304.90621582 903.22812988 -304.05297852 904.08618164 C-299.19570195 908.93073898 -294.21430212 913.5440931 -289 918 C-287.76481995 919.07850577 -286.53042837 920.15791532 -285.296875 921.23828125 C-284.11492531 922.26341525 -282.93263673 923.28815867 -281.75 924.3125 C-281.151875 924.83650391 -280.55375 925.36050781 -279.9375 925.90039062 C-279.35484375 926.40376953 -278.7721875 926.90714844 -278.171875 927.42578125 C-277.6572168 927.87348877 -277.14255859 928.32119629 -276.61230469 928.7824707 C-274.70636765 930.29858141 -274.70636765 930.29858141 -271 932 C-270.67 875.24 -270.34 818.48 -270 760 C-316.2 760 -362.4 760 -410 760 Z M-218 760 C-217.67 816.76 -217.34 873.52 -217 932 C-212.59721582 929.06481055 -208.59771691 926.1269895 -204.625 922.6875 C-203.72261597 921.90862427 -203.72261597 921.90862427 -202.80200195 921.11401367 C-191.99242206 911.70755364 -181.68219658 901.76493487 -171.5 891.6875 C-170.37694458 890.58402222 -170.37694458 890.58402222 -169.23120117 889.45825195 C-168.54646729 888.774646 -167.8617334 888.09104004 -167.15625 887.38671875 C-166.54587891 886.78045654 -165.93550781 886.17419434 -165.30664062 885.54956055 C-163.78511999 884.08299302 -163.78511999 884.08299302 -164 882 C-163.34 882 -162.68 882 -162 882 C-160.59698563 880.69113189 -160.59698563 880.69113189 -159.125 878.875 C-158.50367188 878.1428125 -157.88234375 877.410625 -157.2421875 876.65625 C-156.50226562 875.7796875 -155.76234375 874.903125 -155 874 C-154.08740518 872.94664332 -153.17324634 871.89464033 -152.2578125 870.84375 C-145.23689792 862.76292174 -138.52295385 854.48669025 -132 846 C-130.89591797 844.57494141 -130.89591797 844.57494141 -129.76953125 843.12109375 C-97.11923332 804.08097444 -97.11923332 804.08097444 -79 760 C-124.87 760 -170.74 760 -218 760 Z M-20 760 C-24.62 769.57 -29.24 779.14 -34 789 C-38.24975994 796.7305157 -42.54034269 804.39495524 -47 812 C-48.11758948 813.92815248 -49.23477348 815.85654004 -50.3515625 817.78515625 C-56.1792933 827.79947039 -62.1786281 837.63823053 -68.75097656 847.18164062 C-70.08181856 849.11911349 -71.3970094 851.06664719 -72.7109375 853.015625 C-78.12616981 861.01578906 -83.74823149 868.79304521 -89.72753906 876.38037109 C-91.04349689 878.05536423 -92.34684549 879.73960636 -93.6484375 881.42578125 C-102.42215507 892.75231257 -111.67443972 903.63716594 -121.453125 914.109375 C-123.21107926 915.85085198 -123.21107926 915.85085198 -123 918 C-123.66 918 -124.32 918 -125 918 C-126.60480279 919.54775998 -126.60480279 919.54775998 -128.25 921.5625 C-128.86488281 922.28566406 -129.47976563 923.00882813 -130.11328125 923.75390625 C-130.73589844 924.49511719 -131.35851562 925.23632812 -132 926 C-133.14473463 927.33427675 -134.29046728 928.66769833 -135.4375 930 C-136.283125 930.99 -137.12875 931.98 -138 933 C-115.09085008 928.25903265 -92.62051059 920.89313532 -71 912 C-70.10716309 911.63326172 -69.21432617 911.26652344 -68.29443359 910.88867188 C-46.45417388 901.82912214 -25.08714229 891.50092324 -5 879 C-4.1445459 878.47293457 -3.2890918 877.94586914 -2.40771484 877.40283203 C9.23332537 870.21307944 20.47111886 862.71917955 31.27734375 854.32568359 C33.85976753 852.33835917 36.4968096 850.42618691 39.125 848.5 C49.60075932 840.64318051 59.33277974 831.81868682 69 823 C70.45019531 821.68902344 70.45019531 821.68902344 71.9296875 820.3515625 C81.80766236 811.51726226 81.80766236 811.51726226 91 802 C91 801.34 91 800.68 91 800 C91.66 800 92.32 800 93 800 C94.50273886 798.55316948 94.50273886 798.55316948 96.0625 796.625 C98.73066312 793.47821792 101.45308248 790.40792312 104.25 787.375 C112.06977803 778.71309203 119.00374759 769.32833655 126 760 C77.82 760 29.64 760 -20 760 Z " fill="#000000" transform="translate(844,117)"/>
</svg>
